<svg width="32" height="32" viewBox="0 0 32 32" fill="none" xmlns="http://www.w3.org/2000/svg">
<rect width="32" height="32" rx="16" fill="black"/>
<g filter="url(#filter0_i_210_67168)">
<path d="M15.022 7.012C15.514 7.012 15.76 7.168 15.76 7.48C15.76 7.564 15.754 7.624 15.742 7.66C15.706 7.78 15.652 7.876 15.58 7.948C15.508 8.008 15.406 8.08 15.274 8.164C15.094 8.272 14.944 8.392 14.824 8.524C14.704 8.656 14.602 8.86 14.518 9.136L12.286 17.128C12.082 17.848 11.824 18.352 11.512 18.64C11.212 18.928 10.792 19.072 10.252 19.072C9.772 19.072 9.37 18.934 9.046 18.658C8.734 18.37 8.44 17.932 8.164 17.344L5.446 11.62L3.934 16.876C3.898 17.032 3.88 17.17 3.88 17.29C3.88 17.446 3.904 17.578 3.952 17.686C4.012 17.782 4.09 17.884 4.186 17.992C4.318 18.148 4.384 18.28 4.384 18.388C4.384 18.46 4.378 18.514 4.366 18.55C4.318 18.718 4.21 18.838 4.042 18.91C3.874 18.97 3.622 19 3.286 19H1.324C0.832 19 0.586 18.844 0.586 18.532C0.586 18.448 0.592 18.388 0.604 18.352C0.64 18.232 0.694 18.142 0.766 18.082C0.838 18.01 0.94 17.932 1.072 17.848C1.252 17.74 1.402 17.62 1.522 17.488C1.642 17.356 1.744 17.152 1.828 16.876L4.114 8.794L3.826 8.2C3.706 7.96 3.646 7.75 3.646 7.57C3.646 7.198 3.886 7.012 4.366 7.012H7.03C7.414 7.012 7.702 7.102 7.894 7.282C8.098 7.45 8.314 7.756 8.542 8.2L11.17 13.474L12.412 9.136C12.448 8.968 12.466 8.83 12.466 8.722C12.466 8.566 12.436 8.44 12.376 8.344C12.328 8.236 12.256 8.128 12.16 8.02C12.028 7.864 11.962 7.732 11.962 7.624C11.962 7.552 11.968 7.498 11.98 7.462C12.028 7.294 12.136 7.18 12.304 7.12C12.472 7.048 12.724 7.012 13.06 7.012H15.022Z" fill="url(#paint0_linear_210_67168)"/>
</g>
<path d="M29.726 11.012C30.122 11.012 30.44 11.12 30.68 11.336C30.92 11.54 31.04 11.804 31.04 12.128C31.04 12.584 30.818 13.034 30.374 13.478L22.562 21.272H24.686C24.914 21.272 25.112 21.23 25.28 21.146C25.46 21.05 25.652 20.888 25.856 20.66L26.936 19.472C27.128 19.268 27.308 19.124 27.476 19.04C27.656 18.944 27.872 18.896 28.124 18.896C28.388 18.896 28.604 18.956 28.772 19.076C28.94 19.196 29.024 19.376 29.024 19.616C29.024 19.712 29.006 19.826 28.97 19.958L28.448 21.776C28.316 22.232 28.124 22.55 27.872 22.73C27.62 22.91 27.254 23 26.774 23H18.71C18.194 23 17.804 22.898 17.54 22.694C17.288 22.478 17.162 22.19 17.162 21.83C17.162 21.614 17.216 21.404 17.324 21.2C17.444 20.984 17.63 20.744 17.882 20.48L25.208 12.74H23.534C23.306 12.74 23.102 12.788 22.922 12.884C22.754 12.968 22.568 13.124 22.364 13.352L21.284 14.54C21.092 14.744 20.906 14.894 20.726 14.99C20.558 15.074 20.348 15.116 20.096 15.116C19.832 15.116 19.616 15.056 19.448 14.936C19.28 14.816 19.196 14.636 19.196 14.396C19.196 14.288 19.214 14.174 19.25 14.054L19.772 12.236C19.904 11.78 20.096 11.462 20.348 11.282C20.6 11.102 20.966 11.012 21.446 11.012H29.726Z" fill="url(#paint1_linear_210_67168)"/>
<path d="M13.75 17.072C13.8153 16.8013 13.9507 16.5913 14.156 16.442C14.3613 16.2927 14.6133 16.218 14.912 16.218H18.174C18.6873 16.218 18.944 16.4187 18.944 16.82C18.944 16.9227 18.9347 17.0067 18.916 17.072C18.7387 17.6413 18.3467 17.926 17.74 17.926H14.478C14.226 17.926 14.0347 17.8793 13.904 17.786C13.7733 17.6833 13.708 17.5387 13.708 17.352C13.708 17.2587 13.722 17.1653 13.75 17.072Z" fill="url(#paint2_linear_210_67168)"/>
<defs>
<filter id="filter0_i_210_67168" x="0.585938" y="7.01172" width="15.1738" height="16.0605" filterUnits="userSpaceOnUse" color-interpolation-filters="sRGB">
<feFlood flood-opacity="0" result="BackgroundImageFix"/>
<feBlend mode="normal" in="SourceGraphic" in2="BackgroundImageFix" result="shape"/>
<feColorMatrix in="SourceAlpha" type="matrix" values="0 0 0 0 0 0 0 0 0 0 0 0 0 0 0 0 0 0 127 0" result="hardAlpha"/>
<feOffset dy="4"/>
<feGaussianBlur stdDeviation="2"/>
<feComposite in2="hardAlpha" operator="arithmetic" k2="-1" k3="1"/>
<feColorMatrix type="matrix" values="0 0 0 0 0 0 0 0 0 0 0 0 0 0 0 0 0 0 0.25 0"/>
<feBlend mode="normal" in2="shape" result="effect1_innerShadow_210_67168"/>
</filter>
<linearGradient id="paint0_linear_210_67168" x1="8.58333" y1="5.10526" x2="16.3005" y2="24.1854" gradientUnits="userSpaceOnUse">
<stop stop-color="white"/>
<stop offset="1" stop-color="white" stop-opacity="0"/>
</linearGradient>
<linearGradient id="paint1_linear_210_67168" x1="26.5" y1="31.5" x2="15.5" y2="0.999999" gradientUnits="userSpaceOnUse">
<stop stop-color="white"/>
<stop stop-color="white" stop-opacity="0.724543"/>
<stop offset="0.0001" stop-color="white" stop-opacity="0.81834"/>
<stop offset="1" stop-color="white" stop-opacity="0"/>
<stop offset="1" stop-color="white" stop-opacity="0.234149"/>
</linearGradient>
<linearGradient id="paint2_linear_210_67168" x1="14.5" y1="11.5" x2="15.6442" y2="24.3029" gradientUnits="userSpaceOnUse">
<stop stop-color="white"/>
<stop offset="1" stop-color="#5C5C5C" stop-opacity="0"/>
</linearGradient>
</defs>
</svg>
